<?xml version="1.0" encoding="UTF-8" standalone="no"?>
<svg viewBox="0 0 1400 950" font-family="'Noto Sans SC', 'Microsoft YaHei', 'PingFang SC', sans-serif" version="1.1" xmlns="http://www.w3.org/2000/svg">
  <defs>
    <!-- 层级背景渐变 -->
    <linearGradient id="layer0" x1="0" y1="0" x2="1" y2="1">
      <stop offset="0%" stop-color="#e8eef5"/>
      <stop offset="100%" stop-color="#dce4ef"/>
    </linearGradient>
    <linearGradient id="layer1" x1="0" y1="0" x2="1" y2="1">
      <stop offset="0%" stop-color="#def0e6"/>
      <stop offset="100%" stop-color="#c8e3d6"/>
    </linearGradient>
    <linearGradient id="layer2" x1="0" y1="0" x2="1" y2="1">
      <stop offset="0%" stop-color="#e0e8f5"/>
      <stop offset="100%" stop-color="#c8d8ef"/>
    </linearGradient>
    <linearGradient id="layer3" x1="0" y1="0" x2="1" y2="1">
      <stop offset="0%" stop-color="#f0e4f5"/>
      <stop offset="100%" stop-color="#e0ccef"/>
    </linearGradient>
    <linearGradient id="layer4" x1="0" y1="0" x2="1" y2="1">
      <stop offset="0%" stop-color="#f0ece4"/>
      <stop offset="100%" stop-color="#e8e0d4"/>
    </linearGradient>
    <!-- 状态颜色 -->
    <linearGradient id="modDone" x1="0" y1="0" x2="0" y2="1">
      <stop offset="0%" stop-color="#2d8a4e"/>
      <stop offset="100%" stop-color="#23703f"/>
    </linearGradient>
    <linearGradient id="modPlan" x1="0" y1="0" x2="0" y2="1">
      <stop offset="0%" stop-color="#d4952a"/>
      <stop offset="100%" stop-color="#b87d20"/>
    </linearGradient>
    <!-- 阴影 -->
    <filter id="shadow">
      <feDropShadow dx="1" dy="2" stdDeviation="2" flood-color="#00000020"/>
    </filter>
    <!-- 箭头 -->
    <marker id="arrowDownGray" markerWidth="10" markerHeight="8" refX="5" refY="8" orient="auto">
      <path d="M0,0 L5,8 L10,0" fill="#8899aa"/>
    </marker>
  </defs>

  <!-- 白色背景 -->
  <rect width="1400" height="950" fill="#ffffff"/>
  <rect width="1400" height="950" fill="none" stroke="#c0c8d4" stroke-width="1"/>

  <!-- 标题 -->
  <text x="700" y="38" text-anchor="middle" fill="#1a2a4a" font-size="21" font-weight="bold">Metaphysics Analogical Logic System — 术数推理引擎架构</text>
  <text x="700" y="60" text-anchor="middle" fill="#5a7a9a" font-size="12">Methodology: Leap71 Noyron · Deterministic Rule Engine · Constraint-Driven Inference</text>

  <!-- ============================================================ -->
  <!-- 第0层：输入层 -->
  <!-- ============================================================ -->
  <rect x="50" y="82" width="1300" height="58" rx="8" fill="url(#layer0)" stroke="#b0bcc8" stroke-width="1" filter="url(#shadow)"/>
  <rect x="50" y="82" width="160" height="58" rx="8" fill="#dce4ef" stroke="#b0bcc8" stroke-width="1"/>
  <text x="80" y="103" fill="#5a7a9a" font-size="10" font-weight="bold">LAYER 0</text>
  <text x="80" y="122" fill="#2a4a6a" font-size="13" font-weight="bold">输入层 Input</text>

  <rect x="320" y="90" width="320" height="42" rx="6" fill="#f4f6f8" stroke="#b0bcc8" stroke-width="1"/>
  <text x="480" y="109" text-anchor="middle" fill="#2a4a6a" font-size="11">出生年月日时 (公历/农历)</text>
  <text x="480" y="125" text-anchor="middle" fill="#6a8aaa" font-size="10">Birth Date &amp; Time (Gregorian/Lunar)</text>

  <rect x="680" y="90" width="260" height="42" rx="6" fill="#f4f6f8" stroke="#b0bcc8" stroke-width="1"/>
  <text x="810" y="109" text-anchor="middle" fill="#2a4a6a" font-size="11">性别 / Gender</text>
  <text x="810" y="125" text-anchor="middle" fill="#6a8aaa" font-size="10">Male / Female</text>

  <rect x="980" y="90" width="260" height="42" rx="6" fill="#f4f6f8" stroke="#b0bcc8" stroke-width="1"/>
  <text x="1110" y="109" text-anchor="middle" fill="#2a4a6a" font-size="11">地点 (经度/时区/真太阳时)</text>
  <text x="1110" y="125" text-anchor="middle" fill="#6a8aaa" font-size="10">Location (Longitude/TZ/Solar Time)</text>

  <line x1="700" y1="140" x2="700" y2="170" stroke="#8899aa" stroke-width="2" marker-end="url(#arrowDownGray)"/>

  <!-- ============================================================ -->
  <!-- 第1层：万年历引擎 — 一个整体引擎，内部功能为嵌入标签 -->
  <!-- ============================================================ -->
  <rect x="50" y="173" width="1300" height="115" rx="8" fill="url(#layer1)" stroke="#4a9a6a" stroke-width="1.5" filter="url(#shadow)"/>
  <rect x="50" y="173" width="160" height="115" rx="8" fill="#b8dcc8" stroke="#4a9a6a" stroke-width="1"/>
  <text x="80" y="194" fill="#2a7a4a" font-size="10" font-weight="bold">LAYER 1</text>
  <text x="80" y="214" fill="#0a5a2a" font-size="13" font-weight="bold">万年历引擎</text>
  <text x="80" y="234" fill="#2a7a4a" font-size="10">Calendar Engine</text>
  <text x="80" y="254" fill="#4a9a6a" font-size="9">✅ Sprint 1-6</text>
  <text x="80" y="271" fill="#4a9a6a" font-size="9">v0.6.0</text>

  <!-- 引擎内部功能：内嵌标签形式（不是独立模块） -->
  <rect x="240" y="183" width="760" height="26" rx="4" fill="#e8f5ee" stroke="#6aaa8a" stroke-width="1"/>
  <text x="620" y="201" text-anchor="middle" fill="#1a5a3a" font-size="11" font-weight="bold">引擎内部功能 ── 共同组成完整的历法推算系统</text>

  <!-- 功能标签（轻量圆角标签，非独立模块框） -->
  <rect x="240" y="218" width="130" height="24" rx="12" fill="#d0edd8" stroke="#6aaa8a" stroke-width="1"/>
  <text x="305" y="234" text-anchor="middle" fill="#1a6a3a" font-size="10">干支系统（四柱）</text>

  <rect x="382" y="218" width="110" height="24" rx="12" fill="#d0edd8" stroke="#6aaa8a" stroke-width="1"/>
  <text x="437" y="234" text-anchor="middle" fill="#1a6a3a" font-size="10">节气计算</text>

  <rect x="504" y="218" width="120" height="24" rx="12" fill="#d0edd8" stroke="#6aaa8a" stroke-width="1"/>
  <text x="564" y="234" text-anchor="middle" fill="#1a6a3a" font-size="10">纳音 / 藏干</text>

  <rect x="636" y="218" width="140" height="24" rx="12" fill="#d0edd8" stroke="#6aaa8a" stroke-width="1"/>
  <text x="706" y="234" text-anchor="middle" fill="#1a6a3a" font-size="10">Rata Die 核心</text>

  <rect x="788" y="218" width="120" height="24" rx="12" fill="#d0edd8" stroke="#6aaa8a" stroke-width="1"/>
  <text x="848" y="234" text-anchor="middle" fill="#1a6a3a" font-size="10">天文计算</text>

  <!-- 引擎输出 -->
  <text x="290" y="262" fill="#4a8a6a" font-size="10">输出: 四柱八字 · 节气时间 · 纳音 · 藏干 → 结构化 bazi dict</text>

  <line x1="700" y1="288" x2="700" y2="320" stroke="#8899aa" stroke-width="2" marker-end="url(#arrowDownGray)"/>
  <text x="710" y="310" fill="#6a8aaa" font-size="9">bazi dict</text>

  <!-- ============================================================ -->
  <!-- 第2层：术数规则系统 — 独立的推理模块，可扩展 -->
  <!-- ============================================================ -->
  <rect x="50" y="323" width="1300" height="220" rx="8" fill="url(#layer2)" stroke="#5a8ac0" stroke-width="1.5" filter="url(#shadow)"/>
  <rect x="50" y="323" width="160" height="220" rx="8" fill="#c8d8ef" stroke="#5a8ac0" stroke-width="1"/>
  <text x="80" y="344" fill="#3a6aaa" font-size="10" font-weight="bold">LAYER 2</text>
  <text x="80" y="364" fill="#1a4a8a" font-size="13" font-weight="bold">术数规则系统</text>
  <text x="80" y="384" fill="#3a6aaa" font-size="10">Inference Rules</text>
  <text x="80" y="404" fill="#5a8ac0" font-size="9">Phase 1</text>
  <text x="80" y="421" fill="#5a8ac0" font-size="9">可独立扩展</text>

  <!-- 说明：Layer 2 模块与 Layer 1 不同 -->
  <text x="1130" y="345" text-anchor="middle" fill="#3a6aaa" font-size="9" font-weight="bold">┃</text>
  <text x="1130" y="358" text-anchor="middle" fill="#3a6aaa" font-size="9" font-weight="bold">▼ 每个模块独立</text>
  <text x="1130" y="372" text-anchor="middle" fill="#5a8ac0" font-size="9">可自由增删</text>
  <text x="1130" y="386" text-anchor="middle" fill="#5a8ac0" font-size="9">不依赖其他模块</text>

  <!-- 已完成的模块 - 绿色独立框 -->
  <rect x="240" y="336" width="195" height="85" rx="6" fill="#edf7f2" stroke="#2d8a4e" stroke-width="1.5" filter="url(#shadow)"/>
  <rect x="240" y="336" width="195" height="20" rx="6" fill="url(#modDone)"/>
  <text x="337" y="350" text-anchor="middle" fill="#ffffff" font-size="10" font-weight="bold">✅ 十神 ShiShen</text>
  <text x="337" y="372" text-anchor="middle" fill="#2a7a4a" font-size="10">五行生克 → 十神映射</text>
  <text x="337" y="388" text-anchor="middle" fill="#3a8a5a" font-size="10">比劫/食伤/财/官杀/印</text>
  <text x="337" y="404" text-anchor="middle" fill="#5aaa7a" font-size="9">确定性: 100%</text>

  <rect x="465" y="336" width="195" height="85" rx="6" fill="#edf7f2" stroke="#2d8a4e" stroke-width="1.5" filter="url(#shadow)"/>
  <rect x="465" y="336" width="195" height="20" rx="6" fill="url(#modDone)"/>
  <text x="562" y="350" text-anchor="middle" fill="#ffffff" font-size="10" font-weight="bold">✅ 刑冲合害 Relations</text>
  <text x="562" y="372" text-anchor="middle" fill="#2a7a4a" font-size="10">六合/三合/半合/六冲</text>
  <text x="562" y="388" text-anchor="middle" fill="#3a8a5a" font-size="10">六害/三刑/自刑</text>
  <text x="562" y="404" text-anchor="middle" fill="#5aaa7a" font-size="9">确定性: 100%</text>

  <rect x="690" y="336" width="195" height="85" rx="6" fill="#edf7f2" stroke="#2d8a4e" stroke-width="1.5" filter="url(#shadow)"/>
  <rect x="690" y="336" width="195" height="20" rx="6" fill="url(#modDone)"/>
  <text x="787" y="350" text-anchor="middle" fill="#ffffff" font-size="10" font-weight="bold">✅ 大运 DaYun</text>
  <text x="787" y="372" text-anchor="middle" fill="#2a7a4a" font-size="10">顺排/逆排规则</text>
  <text x="787" y="388" text-anchor="middle" fill="#3a8a5a" font-size="10">起运岁数 · 十年一运</text>
  <text x="787" y="404" text-anchor="middle" fill="#5aaa7a" font-size="9">确定性: 100%</text>

  <!-- 待规划模块 - 橙色独立框 -->
  <rect x="240" y="441" width="195" height="85" rx="6" fill="#fdf5e6" stroke="#d4952a" stroke-width="1.5" filter="url(#shadow)"/>
  <rect x="240" y="441" width="195" height="20" rx="6" fill="url(#modPlan)"/>
  <text x="337" y="455" text-anchor="middle" fill="#ffffff" font-size="10" font-weight="bold">⏳ 神煞 ShenSha</text>
  <text x="337" y="477" text-anchor="middle" fill="#b07818" font-size="10">天乙贵人/桃花/文昌</text>
  <text x="337" y="493" text-anchor="middle" fill="#c08828" font-size="10">华盖/驿马/孤辰寡宿</text>
  <text x="337" y="509" text-anchor="middle" fill="#c09838" font-size="9">确定性: ~90%</text>

  <rect x="465" y="441" width="195" height="85" rx="6" fill="#fdf5e6" stroke="#d4952a" stroke-width="1.5" filter="url(#shadow)"/>
  <rect x="465" y="441" width="195" height="20" rx="6" fill="url(#modPlan)"/>
  <text x="562" y="455" text-anchor="middle" fill="#ffffff" font-size="10" font-weight="bold">⏳ 格局 GeJu</text>
  <text x="562" y="477" text-anchor="middle" fill="#b07818" font-size="10">月令取格 · 八格</text>
  <text x="562" y="493" text-anchor="middle" fill="#c08828" font-size="10">特殊格局 · 清纯度</text>
  <text x="562" y="509" text-anchor="middle" fill="#c09838" font-size="9">确定性: ~85%</text>

  <rect x="690" y="441" width="195" height="85" rx="6" fill="#fdf5e6" stroke="#d4952a" stroke-width="1.5" filter="url(#shadow)"/>
  <rect x="690" y="441" width="195" height="20" rx="6" fill="url(#modPlan)"/>
  <text x="787" y="455" text-anchor="middle" fill="#ffffff" font-size="10" font-weight="bold">⏳ 流年 LiuNian</text>
  <text x="787" y="477" text-anchor="middle" fill="#b07818" font-size="10">岁运作用规则</text>
  <text x="787" y="493" text-anchor="middle" fill="#c08828" font-size="10">大运 + 流年 → 原局</text>
  <text x="787" y="509" text-anchor="middle" fill="#c09838" font-size="9">确定性: ~80%</text>

  <!-- 模块间横向依赖 -->
  <path d="M465,483 L455,483 L455,383 L465,383" fill="none" stroke="#8899aa" stroke-width="1" stroke-dasharray="4,3" marker-end="url(#arrowDownGray)"/>
  <path d="M690,483 L680,483 L680,383 L690,383" fill="none" stroke="#8899aa" stroke-width="1" stroke-dasharray="4,3" marker-end="url(#arrowDownGray)"/>

  <!-- 右侧：Leap71 映射 -->
  <rect x="935" y="336" width="330" height="190" rx="6" fill="#f4f6f8" stroke="#b0bcc8" stroke-width="1"/>
  <text x="1100" y="357" text-anchor="middle" fill="#2a4a6a" font-size="11" font-weight="bold">Leap71 Noyron 方法论映射</text>
  <line x1="945" y1="364" x2="1255" y2="364" stroke="#d0d4dc" stroke-width="0.5"/>

  <text x="950" y="384" fill="#4a6a8a" font-size="10" font-weight="bold">物理定律</text>
  <text x="1035" y="384" fill="#3a5a7a" font-size="10">→ 五行生克 · 阴阳法则</text>

  <text x="950" y="404" fill="#4a6a8a" font-size="10" font-weight="bold">参数化工程知识</text>
  <text x="1035" y="404" fill="#3a5a7a" font-size="10">→ 十神/格局/刑冲合害规则</text>

  <text x="950" y="424" fill="#4a6a8a" font-size="10" font-weight="bold">几何生成引擎 (PicoGK)</text>
  <text x="1035" y="424" fill="#3a5a7a" font-size="10">→ 万年历引擎（干支排盘）</text>

  <text x="950" y="444" fill="#4a6a8a" font-size="10" font-weight="bold">制造约束</text>
  <text x="1035" y="444" fill="#3a5a7a" font-size="10">→ 五行平衡 · 格局清纯度</text>

  <text x="950" y="464" fill="#4a6a8a" font-size="10" font-weight="bold">CFD 仿真</text>
  <text x="1035" y="464" fill="#3a5a7a" font-size="10">→ 岁运作用模拟</text>

  <text x="950" y="484" fill="#4a6a8a" font-size="10" font-weight="bold">热点火测试</text>
  <text x="1035" y="484" fill="#3a5a7a" font-size="10">→ 经典命例库验证</text>

  <text x="950" y="510" fill="#8a9aa8" font-size="9">来源: Leap71 · 计算工程模型</text>

  <line x1="700" y1="543" x2="700" y2="575" stroke="#8899aa" stroke-width="2" marker-end="url(#arrowDownGray)"/>

  <!-- ============================================================ -->
  <!-- 第3层：推演引擎层（Phase 2） -->
  <!-- ============================================================ -->
  <rect x="50" y="578" width="1300" height="130" rx="8" fill="url(#layer3)" stroke="#b07ad0" stroke-width="1.5" filter="url(#shadow)"/>
  <rect x="50" y="578" width="160" height="130" rx="8" fill="#e0ccef" stroke="#b07ad0" stroke-width="1"/>
  <text x="80" y="599" fill="#7a4aaa" font-size="10" font-weight="bold">LAYER 3</text>
  <text x="80" y="619" fill="#5a2a8a" font-size="13" font-weight="bold">推演引擎层</text>
  <text x="80" y="639" fill="#7a4aaa" font-size="10">Inference Engine</text>
  <text x="80" y="659" fill="#9a6aba" font-size="9">Phase 2</text>
  <text x="80" y="676" fill="#9a6aba" font-size="9">约束驱动</text>

  <rect x="240" y="590" width="280" height="50" rx="6" fill="#f4ecf8" stroke="#b07ad0" stroke-width="1.5" filter="url(#shadow)"/>
  <text x="380" y="612" text-anchor="middle" fill="#5a2a8a" font-size="11" font-weight="bold">⏳ 约束求解器 Constraint Solver</text>
  <text x="380" y="630" text-anchor="middle" fill="#7a4aaa" font-size="10">五行平衡 · 格局清纯度 · 用神保护</text>

  <rect x="550" y="590" width="280" height="50" rx="6" fill="#f4ecf8" stroke="#b07ad0" stroke-width="1.5" filter="url(#shadow)"/>
  <text x="690" y="612" text-anchor="middle" fill="#5a2a8a" font-size="11" font-weight="bold">⏳ 空间探索器 Space Explorer</text>
  <text x="690" y="630" text-anchor="middle" fill="#7a4aaa" font-size="10">同一八字 · 不同大运/流年推演</text>

  <rect x="860" y="590" width="280" height="50" rx="6" fill="#f4ecf8" stroke="#b07ad0" stroke-width="1.5" filter="url(#shadow)"/>
  <text x="1000" y="612" text-anchor="middle" fill="#5a2a8a" font-size="11" font-weight="bold">⏳ 评估系统 Evaluation</text>
  <text x="1000" y="630" text-anchor="middle" fill="#7a4aaa" font-size="10">推演结果可信度量化</text>

  <text x="300" y="688" fill="#7a5a9a" font-size="9">链式流程: 排盘 → 十神 → 刑冲合害 → 神煞 → 格局 → 大运 → 流年 → 综合评估</text>

  <line x1="700" y1="708" x2="700" y2="738" stroke="#8899aa" stroke-width="2" marker-end="url(#arrowDownGray)"/>

  <!-- ============================================================ -->
  <!-- 第4层：输出层 + 应用层（Phase 3+） -->
  <!-- ============================================================ -->
  <rect x="50" y="742" width="1300" height="75" rx="8" fill="url(#layer4)" stroke="#b8a88a" stroke-width="1" filter="url(#shadow)"/>
  <rect x="50" y="742" width="160" height="75" rx="8" fill="#e8e0d4" stroke="#b8a88a" stroke-width="1"/>
  <text x="80" y="762" fill="#8a7a5a" font-size="10" font-weight="bold">LAYER 4</text>
  <text x="80" y="782" fill="#5a4a2a" font-size="13" font-weight="bold">输出 / 应用</text>
  <text x="80" y="799" fill="#8a7a5a" font-size="9">Phase 3+</text>

  <rect x="240" y="752" width="200" height="55" rx="5" fill="#f8f6f2" stroke="#b8a88a" stroke-width="1"/>
  <text x="340" y="774" text-anchor="middle" fill="#4a3a2a" font-size="10" font-weight="bold">结构化推演报告</text>
  <text x="340" y="792" text-anchor="middle" fill="#8a7a5a" font-size="9">JSON / Dict</text>

  <rect x="470" y="752" width="200" height="55" rx="5" fill="#f8f6f2" stroke="#b8a88a" stroke-width="1"/>
  <text x="570" y="774" text-anchor="middle" fill="#4a3a2a" font-size="10" font-weight="bold">自然语言解读</text>
  <text x="570" y="792" text-anchor="middle" fill="#8a7a5a" font-size="9">LLM 后处理翻译</text>

  <rect x="700" y="752" width="200" height="55" rx="5" fill="#f8f6f2" stroke="#b8a88a" stroke-width="1"/>
  <text x="800" y="774" text-anchor="middle" fill="#4a3a2a" font-size="10" font-weight="bold">多语言接口</text>
  <text x="800" y="792" text-anchor="middle" fill="#8a7a5a" font-size="9">中文 / English</text>

  <rect x="930" y="752" width="200" height="55" rx="5" fill="#f8f6f2" stroke="#b8a88a" stroke-width="1"/>
  <text x="1030" y="774" text-anchor="middle" fill="#4a3a2a" font-size="10" font-weight="bold">验证系统</text>
  <text x="1030" y="792" text-anchor="middle" fill="#8a7a5a" font-size="9">经典命例 · 名人八字</text>

  <!-- ============================================================ -->
  <!-- 底部状态栏 -->
  <!-- ============================================================ -->
  <line x1="50" y1="845" x2="1350" y2="845" stroke="#d0d4dc" stroke-width="0.5"/>

  <rect x="50" y="855" width="12" height="12" rx="2" fill="#2d8a4e"/>
  <text x="70" y="866" fill="#5a7a9a" font-size="10">已完成（Layer 1 引擎 + Layer 2 十神/刑冲合害/大运）</text>

  <rect x="388" y="855" width="12" height="12" rx="2" fill="#d4952a"/>
  <text x="408" y="866" fill="#5a7a9a" font-size="10">待构建（神煞/格局/流年 + Layer 3 引擎）</text>

  <rect x="680" y="855" width="12" height="12" rx="2" fill="#8a9bb5"/>
  <text x="700" y="866" fill="#5a7a9a" font-size="10">Phase 3（验证/应用层）</text>

  <text x="1100" y="866" fill="#8a9aa8" font-size="10">架构版本 v0.7.0-draft</text>
</svg>
